# xmcd
#
# Track frame offsets:
# 152
# 19937
# 36741
# 70848
# 92925
# 115160
# 135703
# 154694
# 175043
# 191512
# 219275
#
# Disc length: 3139 seconds
#
#
# Revision: 0
# Processed by: cddbd v1.4PL0 Copyright (c) Steve Scherf et al.
# Submitted via: HACP 1.12
#
DISCID=980c410b
DTITLE=The Coupe De Villes - Burning Blues
DYEAR=1900
DGENRE=
TTITLE0=Sweet Sweet Man
TTITLE1=The Crush
TTITLE2=So Many Reasons
TTITLE3=Burning
TTITLE4=Just Give Me Some Time
TTITLE5=Someone's Got it Out For Me
TTITLE6=Good Grief and Gravy
TTITLE7=Tuff Life
TTITLE8=Geraldine
TTITLE9=Mean Streak
TTITLE10=Time for You to Pay
EXTD=
EXTT0=
EXTT1=
EXTT2=
EXTT3=
EXTT4=
EXTT5=
EXTT6=
EXTT7=
EXTT8=
EXTT9=
EXTT10=
PLAYORDER=
